<?xml version="1.0" encoding="UTF-8"?>
<svg width="16px" height="16px" viewBox="0 0 16 16" version="1.1" xmlns="http://www.w3.org/2000/svg" xmlns:xlink="http://www.w3.org/1999/xlink">
    <!-- Generator: Sketch 51.2 (57519) - http://www.bohemiancoding.com/sketch -->
    <title>search icon</title>
    <desc>Created with Sketch.</desc>
    <defs>
        <polygon id="path-1" points="0 16 0 0 16 0 16 16"></polygon>
    </defs>
    <g id="Sprint-1---Batch-2" stroke="none" stroke-width="1" fill="none" fill-rule="evenodd">
        <g id="004_Search---No-results" transform="translate(-139.000000, -186.000000)">
            <g id="search-icon" transform="translate(139.000000, 186.000000)">
                <mask id="mask-2" fill="white">
                    <use xlink:href="#path-1"></use>
                </mask>
                <g id="Clip-2"></g>
                <path d="M6.50142219,12.0026256 C3.46275748,12.0026256 1.0002188,9.53908668 1.0002188,6.50042197 C1.0002188,3.46275748 3.46275748,1.0002188 6.50142219,1.0002188 C9.53908668,1.0002188 12.0026256,3.46275748 12.0026256,6.50042197 C12.0026256,9.53908668 9.53908668,12.0026256 6.50142219,12.0026256 M15.8604695,15.1873222 L11.4024943,10.729347 C12.3867096,9.59009783 13.0028444,8.12377708 13.0028444,6.50042197 C13.0028444,2.90963648 10.0922077,0 6.50142219,0 C2.9106367,0 0,2.90963648 0,6.50042197 C0,10.0922077 2.9106367,13.0018442 6.50142219,13.0018442 C8.1247773,13.0018442 9.59009783,12.3867096 10.729347,11.4024943 L15.1873222,15.8604695 C15.3733629,16.0465102 15.6744288,16.0465102 15.8604695,15.8604695 C16.0465102,15.6744288 16.0465102,15.3723627 15.8604695,15.1873222" id="Fill-1" fill="#33444E" mask="url(#mask-2)"></path>
            </g>
        </g>
    </g>
</svg>